<svg id="instagram_6_" data-name="instagram (6)" xmlns="http://www.w3.org/2000/svg" xmlns:xlink="http://www.w3.org/1999/xlink" width="38.238" height="38.237" viewBox="0 0 38.238 38.237">
  <defs>
    <linearGradient id="linear-gradient" x1="0.084" y1="0.916" x2="0.916" y2="0.084" gradientUnits="objectBoundingBox">
      <stop offset="0" stop-color="#ffd600"/>
      <stop offset="0.5" stop-color="#ff0100"/>
      <stop offset="1" stop-color="#d800b9"/>
    </linearGradient>
    <linearGradient id="linear-gradient-2" x1="0.146" y1="0.854" x2="0.854" y2="0.146" gradientUnits="objectBoundingBox">
      <stop offset="0" stop-color="#ff6400"/>
      <stop offset="0.5" stop-color="#ff0100"/>
      <stop offset="1" stop-color="#fd0056"/>
    </linearGradient>
    <linearGradient id="linear-gradient-3" x1="0.146" y1="0.854" x2="0.854" y2="0.146" gradientUnits="objectBoundingBox">
      <stop offset="0" stop-color="#f30072"/>
      <stop offset="1" stop-color="#e50097"/>
    </linearGradient>
  </defs>
  <path id="Path_197630" data-name="Path 197630" d="M38.123,11.236A14.036,14.036,0,0,0,37.234,6.6a9.37,9.37,0,0,0-2.205-3.386A9.373,9.373,0,0,0,31.642,1,14.034,14.034,0,0,0,27,.116C24.962.022,24.311,0,19.119,0s-5.844.022-7.883.115A14.038,14.038,0,0,0,6.6,1,9.37,9.37,0,0,0,3.209,3.209,9.372,9.372,0,0,0,1,6.6a14.035,14.035,0,0,0-.888,4.641C.022,13.275,0,13.926,0,19.119S.022,24.962.116,27A14.033,14.033,0,0,0,1,31.642a9.369,9.369,0,0,0,2.205,3.386A9.368,9.368,0,0,0,6.6,37.234a14.029,14.029,0,0,0,4.641.889c2.039.093,2.69.115,7.883.115s5.844-.022,7.883-.115a14.03,14.03,0,0,0,4.641-.889,9.774,9.774,0,0,0,5.591-5.591A14.032,14.032,0,0,0,38.123,27c.093-2.039.115-2.69.115-7.883S38.216,13.275,38.123,11.236ZM34.681,26.845a10.578,10.578,0,0,1-.658,3.55,6.331,6.331,0,0,1-3.629,3.629,10.578,10.578,0,0,1-3.55.658c-2.016.092-2.62.111-7.726.111s-5.71-.019-7.726-.111a10.581,10.581,0,0,1-3.55-.658,5.925,5.925,0,0,1-2.2-1.43,5.923,5.923,0,0,1-1.43-2.2,10.578,10.578,0,0,1-.658-3.55c-.092-2.016-.111-2.621-.111-7.726s.02-5.71.111-7.726a10.586,10.586,0,0,1,.658-3.55,5.927,5.927,0,0,1,1.43-2.2,5.919,5.919,0,0,1,2.2-1.43,10.576,10.576,0,0,1,3.55-.658c2.016-.092,2.621-.111,7.726-.111h0c5.1,0,5.71.02,7.726.112a10.58,10.58,0,0,1,3.55.658,5.928,5.928,0,0,1,2.2,1.43,5.919,5.919,0,0,1,1.43,2.2,10.568,10.568,0,0,1,.658,3.55c.092,2.016.111,2.621.111,7.726S34.773,24.829,34.681,26.845Zm0,0" fill="url(#linear-gradient)"/>
  <path id="Path_197631" data-name="Path 197631" d="M134.357,124.539a9.818,9.818,0,1,0,9.818,9.818A9.818,9.818,0,0,0,134.357,124.539Zm0,16.191a6.373,6.373,0,1,1,6.373-6.373A6.373,6.373,0,0,1,134.357,140.73Zm0,0" transform="translate(-115.238 -115.238)" fill="url(#linear-gradient-2)"/>
  <path id="Path_197632" data-name="Path 197632" d="M366.518,90.919a2.294,2.294,0,1,1-2.294-2.294A2.294,2.294,0,0,1,366.518,90.919Zm0,0" transform="translate(-334.9 -82.006)" fill="url(#linear-gradient-3)"/>
</svg>
