<svg xmlns="http://www.w3.org/2000/svg" width="109" height="108" viewBox="0 0 109 108">
  <g id="Icons" transform="translate(0.1 -0.201)">
    <g id="Linkdin_Icon" data-name="Linkdin Icon" transform="translate(0 0)">
      <ellipse id="Background" cx="54.5" cy="54" rx="54.5" ry="54" transform="translate(-0.1 0.201)" fill="#0070c0"/>
      <g id="Linkdin" transform="translate(24.293 21.658)">
        <path id="Path_4819" data-name="Path 4819" d="M149.05,155.5V135.642a15.837,15.837,0,0,0-.524-4.568,4.964,4.964,0,0,0-4.828-3.8,10.2,10.2,0,0,0-3.39.289,5.505,5.505,0,0,0-3.946,4.1,18.55,18.55,0,0,0-.593,5.2v18.63H122.48V115.668h13.249v5.75a.434.434,0,0,0,.329-.224,9.841,9.841,0,0,1,3.455-3.737,11.8,11.8,0,0,1,4.9-1.644,21.029,21.029,0,0,1,8.167.531,11.654,11.654,0,0,1,8.211,7.8,25.482,25.482,0,0,1,1.272,5.956,67.137,67.137,0,0,1,.271,7.228v18.16Z" transform="translate(-102.509 -95.715)" fill="#fff"/>
        <path id="Path_4820" data-name="Path 4820" d="M80.563,155.593H67.3V115.75H80.563Z" transform="translate(-67.271 -95.79)" fill="#fff"/>
        <path id="Path_4821" data-name="Path 4821" d="M80.512,67.159a6.646,6.646,0,1,1-6.624-6.639A6.646,6.646,0,0,1,80.512,67.159Z" transform="translate(-67.219 -60.52)" fill="#fff"/>
      </g>
    </g>
  </g>
</svg>
