<svg xmlns="http://www.w3.org/2000/svg" width="106.285" height="106.285" viewBox="0 0 106.285 106.285">
  <g id="Social-Media-Collection" transform="translate(0)">
    <g id="Twitter">
      <path id="Fill-184" d="M74.273,42.3c.02.468.033.937.033,1.412,0,14.4-10.967,31.019-31.022,31.019a30.87,30.87,0,0,1-16.713-4.9,22.413,22.413,0,0,0,2.6.149,21.869,21.869,0,0,0,13.541-4.667,10.912,10.912,0,0,1-10.187-7.569,11.011,11.011,0,0,0,4.926-.189,10.9,10.9,0,0,1-8.745-10.688v-.139A10.85,10.85,0,0,0,33.646,48.1a10.911,10.911,0,0,1-3.375-14.558A30.956,30.956,0,0,0,52.744,44.935,10.908,10.908,0,0,1,71.32,34.991a21.816,21.816,0,0,0,6.925-2.644,10.957,10.957,0,0,1-4.793,6.032,21.878,21.878,0,0,0,6.261-1.717,22.194,22.194,0,0,1-5.44,5.643M53.142,0a53.142,53.142,0,1,0,53.142,53.142A53.141,53.141,0,0,0,53.142,0" transform="translate(0 0)" fill="#41a1f2" fill-rule="evenodd"/>
    </g>
  </g>
</svg>
